<?xml version="1.0" encoding="utf-8"?>
<!-- Generator: Adobe Illustrator 27.1.1, SVG Export Plug-In . SVG Version: 6.00 Build 0)  -->
<svg version="1.1" id="Layer_1" xmlns="http://www.w3.org/2000/svg" xmlns:xlink="http://www.w3.org/1999/xlink" x="0px" y="0px"
	 viewBox="0 0 925.2 344.4" style="enable-background:new 0 0 925.2 344.4;" xml:space="preserve">
<style type="text/css">
	.st0{fill:#1C75BC;}
	.st1{fill:#FFFFFF;}
	.st2{font-family:'ArialMT';}
	.st3{font-size:41.4292px;}
	.st4{fill:none;stroke:#000000;stroke-miterlimit:10;}
	.st5{fill:url(#SVGID_1_);}
	.st6{fill:url(#SVGID_00000134225049695498399060000014490890721923184061_);}
	.st7{fill:url(#SVGID_00000145771430051764249230000010584627445487136674_);}
	.st8{fill-rule:evenodd;clip-rule:evenodd;fill:#6D6E71;}
	.st9{fill-rule:evenodd;clip-rule:evenodd;fill:url(#SVGID_00000042738044719345953790000001551747318722219441_);}
	.st10{fill-rule:evenodd;clip-rule:evenodd;fill:url(#SVGID_00000143618485948571558100000016128549843243172542_);}
	.st11{fill-rule:evenodd;clip-rule:evenodd;fill:url(#SVGID_00000088829513535563220620000007467109572238190490_);}
	.st12{fill-rule:evenodd;clip-rule:evenodd;fill:url(#SVGID_00000147200137779416045170000017279431990259030421_);}
	.st13{fill-rule:evenodd;clip-rule:evenodd;fill:url(#SVGID_00000017478685656681746600000012269034474698268044_);}
	.st14{fill-rule:evenodd;clip-rule:evenodd;fill:url(#SVGID_00000096047531604414797010000005486636834594154125_);}
	.st15{fill-rule:evenodd;clip-rule:evenodd;fill:url(#SVGID_00000016764262460785295130000014089939509891904682_);}
	.st16{fill-rule:evenodd;clip-rule:evenodd;fill:url(#SVGID_00000144329628629217709730000011851590147914986385_);}
</style>
<g>
	<g>
		<g>
			<path class="st0" d="M372.5,156.3l37.8-50.2h36L378,201.7h-10.8l-67.8-95.6h35.7L372.5,156.3z M302.4,201.7v-76.9l33.3,47.5v29.4
				H302.4z M443.3,201.7H410v-29.4l33.3-47.5V201.7z"/>
			<path class="st0" d="M460.5,129.6c1.1-4.6,3-8.6,5.5-12.1c2.5-3.5,5.8-6.3,9.9-8.3s9.1-3.1,15-3.1h69.2c5.9,0,10.9,1.1,15,3.1
				c4.1,2.1,7.5,4.9,10.1,8.4c2.3,3.2,4,7,5.1,11.2s1.7,8,1.7,11.4v4h-32.9c-0.4-1.2-0.8-2.2-1.2-2.9c-0.4-0.8-0.8-1.6-1.2-2.4
				c-0.5-1.3-1.8-2.4-3.8-3.2c-1.6-0.9-3.3-1.4-5-1.4h-44.7c-1.9,0-3.6,0.5-5.1,1.4c-1.8,0.8-3.1,1.9-3.9,3.3s-1.4,3.2-1.7,5.4v18.9
				c0.2,1.1,0.4,2.1,0.6,3s0.6,1.7,1,2.5c0.9,1.4,2.2,2.6,4.1,3.4s3.5,1.2,5,1.2h44.7c1.5,0,3.2-0.5,5.2-1.5
				c0.9-0.3,1.8-0.9,2.4-1.6c0.7-0.7,1.3-1.5,1.7-2.4c0.5-0.9,0.8-1.7,1.2-2.6c0.3-0.9,0.5-1.6,0.7-2.2H592v4.1
				c0,3.6-0.6,7.4-1.7,11.5c-1.1,4.1-2.9,7.8-5.2,11.1v-0.1c-2.6,3.6-5.9,6.4-10,8.6c-4.1,2.1-9.1,3.2-15,3.2h-69.2
				c-5.9,0-10.9-1-15-3.1c-4.1-2.1-7.4-4.9-9.9-8.3c-2.5-3.5-4.4-7.5-5.5-12s-1.7-9.4-1.7-14.4V144
				C458.8,139,459.3,134.2,460.5,129.6z"/>
			<path class="st0" d="M609.3,129.6c1.2-4.6,3-8.6,5.5-12.1c2.5-3.5,5.8-6.3,9.9-8.3c4.1-2.1,9.1-3.1,15-3.1h69.2
				c5.9,0,10.9,1.1,15,3.1c4.1,2.1,7.5,4.9,10.1,8.4c2.3,3.2,4,7,5.1,11.2s1.7,8,1.7,11.4v4h-32.9c-0.4-1.2-0.8-2.2-1.2-2.9
				c-0.4-0.8-0.8-1.6-1.2-2.4c-0.5-1.3-1.8-2.4-3.8-3.2c-1.6-0.9-3.3-1.4-5-1.4H652c-1.9,0-3.6,0.5-5.1,1.4
				c-1.8,0.8-3.1,1.9-3.9,3.3s-1.4,3.2-1.7,5.4v18.9c0.2,1.1,0.4,2.1,0.6,3s0.6,1.7,1,2.5c0.8,1.4,2.2,2.6,4.1,3.4
				c1.9,0.8,3.5,1.2,5,1.2h44.7c1.5,0,3.2-0.5,5.2-1.5c0.9-0.3,1.8-0.9,2.4-1.6c0.7-0.7,1.3-1.5,1.7-2.4c0.5-0.9,0.8-1.7,1.2-2.6
				c0.3-0.9,0.5-1.6,0.7-2.2h32.9v4.1c0,3.6-0.6,7.4-1.7,11.5c-1.1,4.1-2.9,7.8-5.2,11.1v-0.1c-2.6,3.6-5.9,6.4-10,8.6
				c-4.1,2.1-9.1,3.2-15,3.2h-69.2c-5.9,0-10.9-1-15-3.1c-4.1-2.1-7.4-4.9-9.9-8.3c-2.5-3.5-4.3-7.5-5.5-12s-1.7-9.4-1.7-14.4V144
				C607.6,139,608.2,134.2,609.3,129.6z"/>
			<path class="st0" d="M792.8,170.8c0.2,1.2,0.8,2.3,2,3.4c1.2,1.1,2.6,1.6,4.2,1.6v25.9h-11c-2.5,0-5.3-0.3-8.5-0.9
				c-3.2-0.6-6.3-1.5-9.3-2.7c-3.2-1.6-5.8-3.9-8.1-6.8c-1.2-1.5-2.1-3.2-2.8-5.1c-0.7-1.8-1.2-3.7-1.6-5.5s-0.6-3.6-0.8-5.3
				c-0.1-1.7-0.2-3.2-0.2-4.6L792.8,170.8L792.8,170.8z M838.7,141.6c5,0,9.6,0.4,13.8,1.1s7.7,1.6,10.8,2.8c3.1,1,5.7,2.4,7.9,4.1
				c1.1,0.9,2.2,2.1,3.3,3.6c1.1,1.4,2.1,3.2,3.1,5.1c0.9,2,1.7,3.8,2.2,5.6c0.5,1.8,1,3.5,1.3,5.2c0.3,1.7,0.4,3.6,0.4,5.6
				c0,2.9-0.4,5.8-1.1,8.6c-0.7,2.8-2,5.5-3.9,7.9c-1.6,2.2-3.5,4-5.7,5.3c-2.2,1.3-4.4,2.4-6.8,3.1c-2.3,0.8-4.7,1.3-7,1.5
				s-4.3,0.4-6.1,0.4h-43.1v-25.9h34.6c1.4,0,2.4-0.6,3.1-1.9s1-2.4,1-3.6c0-0.9-0.3-1.9-0.9-2.8c-0.6-0.9-1.4-1.3-2.3-1.3h-48
				c-4.5,0-9.3-0.5-14.5-1.5c-5.6-1-9.3-2.1-11.1-3.2c-1.9-1.2-3.9-3-6-5.4c-2.2-2.5-3.8-5.2-4.8-8.1c-1-2.9-1.6-6.1-1.7-9.5v0.1
				c-0.1-0.3-0.1-0.6-0.1-0.9c0-0.3,0-0.7,0-1.1v-1.7c0-2.4,0.1-4.9,0.4-7.4c0.7-4.2,2-7.6,4-10.2c2.1-2.7,5.5-5.1,10-7.2
				c4.6-2.1,8.1-3.2,10.4-3.5c2-0.3,4-0.4,6-0.4h43V132h-34.5c-1.3,0-2.3,0.6-3,1.9s-1.1,2.4-1.1,3.6c0,1,0.4,2.1,1.2,3.2
				c0.7,0.6,2.9,0.9,6.8,0.9L838.7,141.6L838.7,141.6z M846,137c-0.3-1.5-1-2.8-2.2-3.8c-1.2-1-2.4-1.7-3.7-2.1v-25H851
				c2.3,0,5.1,0.3,8.2,0.9c3.2,0.6,6.2,1.5,9.2,2.7c3.2,1.4,6,3.8,8.3,6.9c1.2,1.5,2.2,3.2,2.9,5c0.7,1.8,1.3,3.6,1.7,5.5
				c0.4,1.9,0.6,3.7,0.8,5.4c0.1,1.7,0.2,3.2,0.2,4.5H846z"/>
		</g>
		<text transform="matrix(1 0 0 1 320.5493 262.4288)" class="st1 st2 st3">Where Vigilance Meets Virtue</text>
		<line class="st4" x1="300.8" y1="216.9" x2="880.9" y2="216.9"/>
	</g>
	<g>
		
			<linearGradient id="SVGID_1_" gradientUnits="userSpaceOnUse" x1="250.4921" y1="464.2231" x2="23.2454" y2="236.9764" gradientTransform="matrix(1 0 0 1 0 -156.1102)">
			<stop  offset="0.1394" style="stop-color:#051094"/>
			<stop  offset="0.1681" style="stop-color:#09219B"/>
			<stop  offset="0.2283" style="stop-color:#103FA7"/>
			<stop  offset="0.2918" style="stop-color:#1557B0"/>
			<stop  offset="0.3592" style="stop-color:#1968B7"/>
			<stop  offset="0.4332" style="stop-color:#1B72BB"/>
			<stop  offset="0.5262" style="stop-color:#1C75BC"/>
		</linearGradient>
		<path class="st5" d="M216.6,183.6c-7.3,18.8-16.4,35.5-27.3,49.8c-14.2,18.8-31.3,33.4-50.9,43.4c-19.6-10.1-36.7-24.7-50.9-43.4
			c-10.8-14.3-20-31.1-27.3-49.8h12.8c6.7,16.2,16.4,34.3,30.4,50.5l0.4,0.4c0.4,0.5,0.9,1,1.3,1.5c9.2,10.3,20.2,19.7,33.2,27.2
			c13.1-7.6,24-17,33.2-27.2c0.4-0.5,0.9-1,1.3-1.5l0.4-0.4c14-16.2,23.8-34.4,30.4-50.5H216.6z"/>
		
			<linearGradient id="SVGID_00000042729648768804104070000001390791014178898088_" gradientUnits="userSpaceOnUse" x1="282.9751" y1="431.7402" x2="55.7284" y2="204.4935" gradientTransform="matrix(1 0 0 1 0 -156.1102)">
			<stop  offset="0.1394" style="stop-color:#051094"/>
			<stop  offset="0.1681" style="stop-color:#09219B"/>
			<stop  offset="0.2283" style="stop-color:#103FA7"/>
			<stop  offset="0.2918" style="stop-color:#1557B0"/>
			<stop  offset="0.3592" style="stop-color:#1968B7"/>
			<stop  offset="0.4332" style="stop-color:#1B72BB"/>
			<stop  offset="0.5262" style="stop-color:#1C75BC"/>
		</linearGradient>
		<path style="fill:url(#SVGID_00000042729648768804104070000001390791014178898088_);" d="M224,108.8c-0.2,0.1-23.3,13.3-44.6,9.9
			c-24.4-3.9-36.7-36.5-41-51.1c-4.3,14.6-16.7,47.1-41,51.1c-21.3,3.4-44.4-9.8-44.6-9.9l-9.7-5.6l0.7,11.2c0,0.3,0.5,7.7,2.6,19.5
			c1.6,9.2,4.5,22.8,9.5,37.9h49.9c-0.3-1.7-0.4-3.4-0.4-5.1c0-2.3,0.2-4.6,0.7-6.8H64.6c-4.3-14.7-6.6-27.4-7.8-35.8
			c10.1,4.2,26.3,9.1,42.4,6.5c9.4-1.5,18.1-6.2,25.9-13.9c4.8-4.8,9.3-10.9,13.3-18c4,7.1,8.4,13.1,13.3,18
			c7.7,7.7,16.4,12.4,25.9,13.9c16.1,2.6,32.3-2.3,42.4-6.5c-1.2,8.4-3.5,21.1-7.8,35.8h-41.4c0.5,2.2,0.7,4.5,0.7,6.8
			c0,1.7-0.1,3.5-0.4,5.1h49.9c5-15.1,7.9-28.7,9.5-37.9c2.1-11.7,2.6-19.2,2.6-19.5l0.7-11.2L224,108.8z"/>
		<g>
			
				<linearGradient id="SVGID_00000047040628020173026020000010721383572894262705_" gradientUnits="userSpaceOnUse" x1="138.325" y1="438.3558" x2="138.325" y2="214.6994" gradientTransform="matrix(1 0 0 1 0 -156.1102)">
				<stop  offset="0.1394" style="stop-color:#051094"/>
				<stop  offset="0.1681" style="stop-color:#09219B"/>
				<stop  offset="0.2283" style="stop-color:#103FA7"/>
				<stop  offset="0.2918" style="stop-color:#1557B0"/>
				<stop  offset="0.3592" style="stop-color:#1968B7"/>
				<stop  offset="0.4332" style="stop-color:#1B72BB"/>
				<stop  offset="0.5262" style="stop-color:#1C75BC"/>
			</linearGradient>
			<path style="fill:url(#SVGID_00000047040628020173026020000010721383572894262705_);" d="M147.8,168h-19c-3.8,0-6.9,3.1-6.9,6.9
				l6.9,38.6c0,3.8,3.1,6.9,6.9,6.9h5.2c3.8,0,6.9-3.1,6.9-6.9l6.9-38.6C154.7,171.1,151.6,168,147.8,168z"/>
			<g>
				<path class="st8" d="M131.9,154.2c4.5,1.7,8.8,1.6,12.9,0v1.3c1.7,0.5,0.8,3.5-0.5,4.2c-1.1,3.1-3,6.1-6,6.2
					c-3.1-0.1-5-3.1-6.1-6.2c-1.3-0.7-2-3.7-0.5-4.2L131.9,154.2z"/>
				
					<linearGradient id="SVGID_00000052085797585215986830000017712517544771658139_" gradientUnits="userSpaceOnUse" x1="138.27" y1="281.7618" x2="138.27" y2="356.0776" gradientTransform="matrix(1 0 0 1 0 -156.1102)">
					<stop  offset="0.2542" style="stop-color:#051094"/>
					<stop  offset="0.2726" style="stop-color:#09219B"/>
					<stop  offset="0.3112" style="stop-color:#103FA7"/>
					<stop  offset="0.3519" style="stop-color:#1557B0"/>
					<stop  offset="0.395" style="stop-color:#1968B7"/>
					<stop  offset="0.4424" style="stop-color:#1B72BB"/>
					<stop  offset="0.502" style="stop-color:#1C75BC"/>
				</linearGradient>
				<path style="fill-rule:evenodd;clip-rule:evenodd;fill:url(#SVGID_00000052085797585215986830000017712517544771658139_);" d="
					M138.3,151.2c3.1,0,5.8,0.7,7.8,1.8c-1.9,1.2-4.6,1.8-7.8,1.8s-6-0.6-7.9-1.8C132.4,152,135.2,151.2,138.3,151.2L138.3,151.2z"
					/>
				
					<linearGradient id="SVGID_00000079450645089818488350000014382373277091899574_" gradientUnits="userSpaceOnUse" x1="30.9193" y1="416.6109" x2="182.6272" y2="264.903" gradientTransform="matrix(1 0 0 1 0 -156.1102)">
					<stop  offset="0" style="stop-color:#C9CCE0"/>
					<stop  offset="0.2865" style="stop-color:#777A8E"/>
					<stop  offset="0.4307" style="stop-color:#A1A4B8"/>
					<stop  offset="0.5824" style="stop-color:#C9CCE0"/>
					<stop  offset="0.8232" style="stop-color:#F1F4FD"/>
					<stop  offset="0.8395" style="stop-color:#F4F7FF"/>
					<stop  offset="1" style="stop-color:#7F8196"/>
				</linearGradient>
				<path style="fill-rule:evenodd;clip-rule:evenodd;fill:url(#SVGID_00000079450645089818488350000014382373277091899574_);" d="
					M134.9,153.3c1.1,0.4,2.1,0.7,3.1,0.5c-0.1-0.1-0.2-0.2-0.4-0.4c0.2,0.1,0.5,0.2,0.7,0.2s0.4-0.1,0.6-0.2
					c-0.1,0.1-0.2,0.2-0.4,0.4c1.1,0.2,2.1-0.1,3.2-0.5c0.5-0.1,2.1-0.5,3-0.1c-0.9-0.1-1.9,0.2-2.9,0.5c-0.4,0.1-2.3,0.9-3.6,0.2
					c-1.4,0.7-3.2-0.1-3.6-0.2c-0.9-0.2-2-0.6-3-0.5C132.6,152.8,134.3,153.1,134.9,153.3L134.9,153.3z"/>
				
					<linearGradient id="SVGID_00000109730513343547054020000008730077118186121361_" gradientUnits="userSpaceOnUse" x1="138.33" y1="281.7618" x2="138.33" y2="356.0776" gradientTransform="matrix(1 0 0 1 0 -156.1102)">
					<stop  offset="0.1394" style="stop-color:#051094"/>
					<stop  offset="0.1681" style="stop-color:#09219B"/>
					<stop  offset="0.2283" style="stop-color:#103FA7"/>
					<stop  offset="0.2918" style="stop-color:#1557B0"/>
					<stop  offset="0.3592" style="stop-color:#1968B7"/>
					<stop  offset="0.4332" style="stop-color:#1B72BB"/>
					<stop  offset="0.5262" style="stop-color:#1C75BC"/>
				</linearGradient>
				<path style="fill-rule:evenodd;clip-rule:evenodd;fill:url(#SVGID_00000109730513343547054020000008730077118186121361_);" d="
					M138.3,146.5c4.4,0,8,2.3,8,5.1c0,0.4-0.1,0.6-0.1,0.9c-1.9-1.2-4.8-1.9-7.9-1.9c-3.2,0-6,0.7-7.9,1.9c-0.1-0.4-0.1-0.6-0.1-0.9
					C130.3,148.7,133.9,146.5,138.3,146.5L138.3,146.5z"/>
				
					<linearGradient id="SVGID_00000109003415152192155700000007678745931198141341_" gradientUnits="userSpaceOnUse" x1="29.7017" y1="415.3934" x2="181.4097" y2="263.6855" gradientTransform="matrix(1 0 0 1 0 -156.1102)">
					<stop  offset="0" style="stop-color:#C9CCE0"/>
					<stop  offset="0.2865" style="stop-color:#777A8E"/>
					<stop  offset="0.4307" style="stop-color:#A1A4B8"/>
					<stop  offset="0.5824" style="stop-color:#C9CCE0"/>
					<stop  offset="0.8232" style="stop-color:#F1F4FD"/>
					<stop  offset="0.8395" style="stop-color:#F4F7FF"/>
					<stop  offset="1" style="stop-color:#7F8196"/>
				</linearGradient>
				<path style="fill-rule:evenodd;clip-rule:evenodd;fill:url(#SVGID_00000109003415152192155700000007678745931198141341_);" d="
					M132.1,152.9c2.6-0.1,4.9,1.9,7.3,0.6"/>
				
					<linearGradient id="SVGID_00000157307729664473194890000012878505680199637890_" gradientUnits="userSpaceOnUse" x1="27.8818" y1="413.5735" x2="179.5896" y2="261.8655" gradientTransform="matrix(1 0 0 1 0 -156.1102)">
					<stop  offset="0" style="stop-color:#C9CCE0"/>
					<stop  offset="0.2865" style="stop-color:#777A8E"/>
					<stop  offset="0.4307" style="stop-color:#A1A4B8"/>
					<stop  offset="0.5824" style="stop-color:#C9CCE0"/>
					<stop  offset="0.8232" style="stop-color:#F1F4FD"/>
					<stop  offset="0.8395" style="stop-color:#F4F7FF"/>
					<stop  offset="1" style="stop-color:#7F8196"/>
				</linearGradient>
				
					<polygon style="fill-rule:evenodd;clip-rule:evenodd;fill:url(#SVGID_00000157307729664473194890000012878505680199637890_);" points="
					137.6,147.6 137.6,147.7 137.7,147.7 137.6,147.8 137.7,147.9 137.6,147.9 137.5,147.9 137.5,147.8 137.4,147.7 137.5,147.7 
									"/>
				
					<linearGradient id="SVGID_00000124853210539222145130000004461397377896673435_" gradientUnits="userSpaceOnUse" x1="28.7552" y1="414.447" x2="180.4632" y2="262.7391" gradientTransform="matrix(1 0 0 1 0 -156.1102)">
					<stop  offset="0" style="stop-color:#C9CCE0"/>
					<stop  offset="0.2865" style="stop-color:#777A8E"/>
					<stop  offset="0.4307" style="stop-color:#A1A4B8"/>
					<stop  offset="0.5824" style="stop-color:#C9CCE0"/>
					<stop  offset="0.8232" style="stop-color:#F1F4FD"/>
					<stop  offset="0.8395" style="stop-color:#F4F7FF"/>
					<stop  offset="1" style="stop-color:#7F8196"/>
				</linearGradient>
				<path style="fill-rule:evenodd;clip-rule:evenodd;fill:url(#SVGID_00000124853210539222145130000004461397377896673435_);" d="
					M137.5,148.1c0.4,0.1,0.5,0.1,0.8,0c0.2,0.1,0.5,0.1,0.7,0c0,0.1,0.1,0.2,0.2,0.2c-0.2,0.7-0.4,1.6-0.9,1.7
					c-0.7-0.1-0.8-0.9-0.9-1.7C137.5,148.4,137.5,148.3,137.5,148.1L137.5,148.1z"/>
				
					<linearGradient id="SVGID_00000177484441423875740650000008921653693999145905_" gradientUnits="userSpaceOnUse" x1="28.1192" y1="413.8109" x2="179.8271" y2="262.1031" gradientTransform="matrix(1 0 0 1 0 -156.1102)">
					<stop  offset="0" style="stop-color:#C9CCE0"/>
					<stop  offset="0.2865" style="stop-color:#777A8E"/>
					<stop  offset="0.4307" style="stop-color:#A1A4B8"/>
					<stop  offset="0.5824" style="stop-color:#C9CCE0"/>
					<stop  offset="0.8232" style="stop-color:#F1F4FD"/>
					<stop  offset="0.8395" style="stop-color:#F4F7FF"/>
					<stop  offset="1" style="stop-color:#7F8196"/>
				</linearGradient>
				
					<polygon style="fill-rule:evenodd;clip-rule:evenodd;fill:url(#SVGID_00000177484441423875740650000008921653693999145905_);" points="
					138.3,147.2 138.3,147.4 138.6,147.4 138.4,147.6 138.4,147.8 138.3,147.7 138.1,147.8 138.2,147.6 138,147.4 138.2,147.4 				
					"/>
				
					<linearGradient id="SVGID_00000139275653725858996880000006300500955987004343_" gradientUnits="userSpaceOnUse" x1="28.5968" y1="414.2884" x2="180.3046" y2="262.5805" gradientTransform="matrix(1 0 0 1 0 -156.1102)">
					<stop  offset="0" style="stop-color:#C9CCE0"/>
					<stop  offset="0.2865" style="stop-color:#777A8E"/>
					<stop  offset="0.4307" style="stop-color:#A1A4B8"/>
					<stop  offset="0.5824" style="stop-color:#C9CCE0"/>
					<stop  offset="0.8232" style="stop-color:#F1F4FD"/>
					<stop  offset="0.8395" style="stop-color:#F4F7FF"/>
					<stop  offset="1" style="stop-color:#7F8196"/>
				</linearGradient>
				
					<polygon style="fill-rule:evenodd;clip-rule:evenodd;fill:url(#SVGID_00000139275653725858996880000006300500955987004343_);" points="
					139,147.6 139,147.7 139.2,147.7 139,147.8 139.2,147.9 139,147.9 138.9,147.9 138.9,147.8 138.8,147.7 138.9,147.7 				"/>
			</g>
		</g>
	</g>
</g>
</svg>
